# xmcd CD database file
#
# Track frame offsets:
#	150
#	19380
#	32055
#	51384
#	65385
#	84449
#	104193
#	121803
#	141325
#	161943
#	171624
#	191733
#	211653
#	226356
#
# Disc length: 3254 seconds
#
# Revision: 2
# Processed by: cddbd v1.5.2PL0 Copyright (c) Steve Scherf et al.
# Submitted via: CDex 1.51
#
DISCID=d20cb40e
DTITLE=Boogie Connection - Bright Ligths
DYEAR=2005
DGENRE=Blues
TTITLE0=Bright Lights Big City
TTITLE1=The're Red Hot
TTITLE2=Country Boy
TTITLE3=Flower Street Express
TTITLE4=Thank You For The Memories
TTITLE5=Good Golly Miss Molly
TTITLE6=Reconsider Baby
TTITLE7=Help The Poor
TTITLE8=Don't Put Your Love On Me Too Strong
TTITLE9=Short Story
TTITLE10=Key To The Highway
TTITLE11=Dr. Feelgood
TTITLE12=Hiram's Boogie Woogie
TTITLE13=Jailhouse Rock
EXTD=YEAR: 2005
EXTT0=
EXTT1=
EXTT2=
EXTT3=
EXTT4=
EXTT5=
EXTT6=
EXTT7=
EXTT8=
EXTT9=
EXTT10=
EXTT11=
EXTT12=
EXTT13=
PLAYORDER=
